<?xml version="1.0" encoding="utf-8"?>
<!-- Generator: Adobe Illustrator 19.2.1, SVG Export Plug-In . SVG Version: 6.00 Build 0)  -->
<svg version="1.1" id="layer" xmlns="http://www.w3.org/2000/svg" xmlns:xlink="http://www.w3.org/1999/xlink" x="0px" y="0px"
	 viewBox="0 0 652 652" style="enable-background:new 0 0 652 652;" xml:space="preserve">
<style type="text/css">
	.st0{fill:#FF5B02;}
</style>
<path class="st0" d="M244.3,284.8H368c-1.1,6.7-2.3,13.2-3.3,20H240.8C242,298.2,242.9,291.2,244.3,284.8 M162.9,284.7
	c-4.8,27.1-9.2,54.6-14,81.8h20.1c2-11.3,3.8-22.8,5.9-34c6.6,11.2,12.9,22.8,19.5,34h25.2c-8-14-16.4-27.7-24.6-41.5
	c12-12.5,24.6-25.7,36.5-38c0.8-0.8,2.5-1.6,2.1-2.4c-4.1,0-8.3,0-12.3,0c-3.5,0-9-0.1-12.3,0c-1.1,0-2.6,2.2-3.9,3.6
	c-8.8,9.5-18.5,19.1-27.5,28.3c1.7-10.8,3.6-21.2,5.3-31.9H162.9 M373.6,284.7c3.7,26.9,8.2,54.8,12.3,81.9h22.4
	c6.9-16.9,13.8-33.9,20.9-50.6c1.9,16.8,3.5,34,5.6,50.6h22.4c12.5-26.2,24.7-53.6,37.3-79.5c0.3-0.6,0.9-1.6,0.6-2.3h-20.7
	c-7.8,17.6-15.4,35.5-23.4,52.9c-2-17.6-3.9-35.4-6-52.9h-22c-7.2,17.6-14.3,35.4-21.9,52.5c-1.9-17.7-4.3-34.8-6.2-52.5H373.6z
	 M507.5,329.8c3.4-7.2,7.5-13.6,10.9-20.8c1.8,6.6,3.1,13.8,4.5,20.8H507.5 M513.2,284.7c-15.9,27.2-31.7,54.5-47.4,81.9h21.7
	c3.5-6,6.5-12.6,10.1-18.5h29.1c1.1,6.2,2.5,12.1,3.5,18.5h22.2c-6.4-27.5-13.1-54.6-19.7-81.9H513.2 M546.8,284.9
	c5.3,10.4,11.3,23.1,16.8,34.4c1.3,2.7,5.3,8.5,5.5,11.3c0.1,1.1-0.6,2.8-0.8,4.3c-1.9,10.9-3.3,21.2-5.1,31.7h20.1
	c1.9-11.8,4-23.5,6-35.3c11.6-14.3,23.5-29.7,35.1-43.8c0.8-1,2.1-1.9,1.8-2.8H604c-7.4,8.9-14.8,19-22.2,27.2
	c-4.3-9-8-18.7-12.7-27.2C561.7,284.9,553.8,284.5,546.8,284.9 M240.2,316.9l-0.4,0.6c-2.9,16.3-5.7,32.7-8.6,49.1h54.6
	c1.1-6.8,2.3-13.5,3.5-20.2c-11.4-0.1-23.4,0.3-34.5-0.2c0.8-2.9,0.9-6.4,1.8-9.1h34.3c1.2-6.7,2.3-13.5,3.5-20.2H240.2
	 M310.2,316.9c-3.6,15.9-5.8,33.4-9,49.7h54.6c1.2-6.8,2.3-13.5,3.5-20.2h-34.5c0.8-2.9,1-6.4,1.9-9.3h34.3c1.2-6.6,2.3-13.3,3.5-20
	C346.1,317.2,328.4,316.7,310.2,316.9 M131.1,303.6c-4.6-9.8-11.2-17.5-20.1-23.3c-8.8-5.7-21-10.4-35.1-8.8
	c-29.4,3.4-48.9,24.3-49.7,56.1c3.5,0.7,6.7,1.8,10.1,2.6c-1.5-27,15-45.3,36.1-50.1c12.5-2.9,24.3,0.1,33,4.7
	c8.9,4.6,14.6,11.8,19.7,20.1C127.2,304.5,129.3,304.2,131.1,303.6 M44.9,366.9c8.3,6.6,17.9,12.3,31.2,13.3
	c13.8,1.1,26.1-3.1,35.1-9c8.5-5.6,15.7-14,20.1-24.4c4.3-10.2,6.2-25,1.9-37.7l-0.2-0.2l-0.2-0.2c-1.2,2-3.8,3.7-4.3,5.7
	c5.5,26.2-8.3,45.3-25.5,53.4c-7.9,3.8-17.6,5.4-27.5,3.9c-9.3-1.4-16.4-5.2-22.6-10C50.3,363.5,47.5,365.1,44.9,366.9 M39.3,318.6
	c0.2,1.8,1.8,3.5,2.9,5.1c1.2,1.7,2.3,3.6,3.7,4.9c15.2,2.6,34,0.7,47.4-1.4c-9,11.2-19.7,20.8-31,29.9c0.6,0.9,1,1.9,1.2,3.1
	c15.4-9.9,29.1-22.6,40.6-36.2c0.8-0.9,1.9-2.2,1.6-2.9C85.5,325,57,324.7,39.3,318.6 M26.2,329.8c0.5,2.5,0.8,5.3,1.2,7.8
	c12.2,2.1,26.9,3.2,41.1,2.1c-8.1,8.9-18.1,16-27.9,23.1c0.8,0.6,1,1.8,2.1,2c13.6-7.8,26.7-17.2,37.1-28c0.5-0.6,1.5-1.3,1.4-2.2
	C62,337.2,41.3,334.5,26.2,329.8 M28.3,340.3c2.1,8.3,6,14.7,10.7,20.5c2.9-1.6,5.4-3.5,8-5.3c-3.5-3.7-6.1-8.4-8-13.7
	C35.2,341.3,31.9,340.7,28.3,340.3 M49,305.1c1.8,1.9,3.4,3.9,5.5,6.3c1.4,1.7,3.7,5.1,5.3,5.7c1.7,0.6,4.6,0.5,7.2,0.6
	c18.1,0.8,36.6-1.4,50.3-4.3c-10.4,13.8-22.1,26.1-34.7,37.7c0.9,0.8,1.2,2.1,2.1,2.9c16.2-12.7,30.8-28.2,43.3-44.4
	c0.9-1.1,2.2-2,2-3.1C105.2,311,71.9,309.8,49,305.1"/>
</svg>
